<?xml version="1.0" encoding="UTF-8" standalone="no"?>
<!-- Created with Inkscape (http://www.inkscape.org/) -->

<svg
   width="1220mm"
   height="500mm"
   viewBox="0 0 1220 500.00063"
   version="1.1"
   id="svg1"
   xmlns="http://www.w3.org/2000/svg"
   xmlns:svg="http://www.w3.org/2000/svg">
  <defs
     id="defs1" />
  <g
     id="layer1">
    <path
       id="path11"
       style="fill:#333333;fill-opacity:1;stroke-width:0.120191"
       d="M 256.57526,10.741993 A 235.42664,235.42664 0 0 0 223.89142,12.433882 235.42664,235.42664 0 0 0 17.717455,265.1459 235.42664,235.42664 0 0 0 261.88967,481.36554 235.42664,235.42664 0 0 0 487.80123,246.13102 l -3.07114,-37.90471 A 235.42664,235.42664 0 0 0 256.57526,10.741993 Z m -0.66973,37.521271 A 197.89955,197.89955 0 0 1 447.69251,214.26833 l 2.58176,31.86269 A 197.89955,197.89955 0 0 1 260.37296,443.86907 197.89955,197.89955 0 0 1 55.121925,262.11508 197.89955,197.89955 0 0 1 228.43172,49.685402 197.89955,197.89955 0 0 1 255.90553,48.263264 Z" />
    <text
       xml:space="preserve"
       style="font-size:240.446px;font-family:Chalkduster;-inkscape-font-specification:Chalkduster;fill:#f59f00;fill-opacity:1;stroke-width:0.257621"
       x="144.33563"
       y="332.67474"
       id="text3-1"
       transform="matrix(1.1477971,0,-0.20433119,0.87123412,0,0)"><tspan
         id="tspan3-4"
         style="font-style:normal;font-variant:normal;font-weight:normal;font-stretch:normal;font-family:'Marker Felt';-inkscape-font-specification:'Marker Felt';fill:#f59f00;fill-opacity:1;stroke-width:0.257621"
         x="144.33563"
         y="332.67474">N</tspan></text>
    <text
       xml:space="preserve"
       style="font-size:240.446px;line-height:0;font-family:Chalkduster;-inkscape-font-specification:Chalkduster;fill:#f59f00;fill-opacity:1;stroke-width:0.257621"
       x="525.41333"
       y="269.9375"
       id="text3-1-6"
       transform="matrix(1.1477971,0,-0.20433119,0.87123412,0,0)"><tspan
         id="tspan3-4-9"
         style="font-style:normal;font-variant:normal;font-weight:bold;font-stretch:normal;line-height:1;font-family:'Marker Felt';-inkscape-font-specification:'Marker Felt Bold';fill:#f59f00;fill-opacity:1;stroke-width:0.257621"
         x="525.41333"
         y="269.9375">Night </tspan><tspan
         style="font-style:normal;font-variant:normal;font-weight:normal;font-stretch:normal;line-height:1;font-family:'Marker Felt';-inkscape-font-specification:'Marker Felt';fill:#f59f00;fill-opacity:1;stroke-width:0.257621"
         x="525.41333"
         y="510.38348"
         id="tspan17"><tspan
   style="font-style:normal;font-variant:normal;font-weight:bold;font-stretch:normal;line-height:1;font-family:'Marker Felt';-inkscape-font-specification:'Marker Felt Bold'"
   id="tspan18">Haul</tspan> </tspan></text>
    <text
       xml:space="preserve"
       style="font-size:240.446px;font-family:Chalkduster;-inkscape-font-specification:Chalkduster;fill:#ee9800;fill-opacity:1;stroke-width:0.257621"
       x="278.78525"
       y="398.59311"
       id="text3-9-8"
       transform="matrix(1.1477971,0,-0.20433119,0.87123412,0,0)"><tspan
         id="tspan3-0-8"
         style="font-style:normal;font-variant:normal;font-weight:normal;font-stretch:normal;font-family:'Marker Felt';-inkscape-font-specification:'Marker Felt';fill:#ee9800;fill-opacity:1;stroke-width:0.257621"
         x="278.78525"
         y="398.59311">H</tspan></text>
    <path
       style="fill:#333333;fill-opacity:1;stroke-width:0.264584"
       id="rect13"
       width="181.78262"
       height="53.861515"
       x="153.70082"
       y="-1324.9746"
       ry="26.756866"
       transform="matrix(0.45426435,0,0,0.45426435,141.2652,603.96546)"
       d="m 180.45769,-1324.9746 h 128.26889 c 14.8233,0 26.75686,11.9336 26.75686,26.7569 v 0.3477 c 0,14.8233 -11.93356,26.7569 -26.75686,26.7569 H 180.45769 c -14.82331,0 -26.75687,-11.9336 -26.75687,-26.7569 v -0.3477 c 0,-14.8233 11.93356,-26.7569 26.75687,-26.7569 z m -260.033665,104.0454 111.084118,-64.1345 c 12.837358,-7.4116 29.138907,-3.0437 36.550559,9.7937 l 0.173891,0.3012 c 7.411652,12.8373 3.043665,29.1389 -9.793693,36.5505 l -111.084117,64.1345 c -12.837358,7.4116 -29.138908,3.0437 -36.55056,-9.7937 l -0.173891,-0.3012 c -7.411652,-12.8373 -3.043665,-29.1389 9.793693,-36.5505 z m -173.173075,220.1227 64.13444,-111.0841 c 7.41165,-12.8374 23.7132,-17.2054 36.55056,-9.7937 l 0.30119,0.1739 c 12.83736,7.4116 17.20534,23.7132 9.79369,36.5505 l -64.13444,111.08416 c -7.41165,12.83736 -23.7132,17.20535 -36.55056,9.7937 l -0.30119,-0.1739 c -12.83736,-7.41165 -17.20534,-23.7132 -9.79369,-36.55056 z m -39.91091,277.21844 v -128.26889 c 0,-14.8233 11.93356,-26.75686 26.75687,-26.75686 h 0.34778 c 14.8233,0 26.75687,11.93356 26.75687,26.75686 v 128.26889 c 0,14.82331 -11.93357,26.75687 -26.75687,26.75687 h -0.34778 c -14.82331,0 -26.75687,-11.93356 -26.75687,-26.75687 z m 104.04536,260.03366 -64.13445,-111.08411 c -7.41165,-12.83736 -3.04366,-29.13891 9.7937,-36.55056 l 0.30119,-0.17389 c 12.83735,-7.41166 29.1389,-3.04367 36.55056,9.79369 l 64.13444,111.08412 c 7.41165,12.83736 3.04367,29.1389 -9.79369,36.55056 l -0.30119,0.17389 c -12.83736,7.41165 -29.13891,3.04366 -36.55056,-9.7937 z m 220.122756,173.17308 -111.084118,-64.13444 c -12.837358,-7.41165 -17.205345,-23.7132 -9.793693,-36.55056 l 0.173891,-0.30119 c 7.411652,-12.83736 23.713202,-17.20534 36.550559,-9.79369 l 111.084118,64.13444 c 12.837358,7.41165 17.205345,23.7132 9.793693,36.55056 l -0.173891,0.30119 c -7.411652,12.83736 -23.713202,17.20534 -36.550559,9.79369 z m 277.218434,39.91091 H 180.4577 c -14.8233,0 -26.75686,-11.93356 -26.75686,-26.75687 v -0.34778 c 0,-14.8233 11.93356,-26.75687 26.75686,-26.75687 h 128.26889 c 14.82331,0 26.75687,11.93357 26.75687,26.75687 v 0.34778 c 0,14.82331 -11.93356,26.75687 -26.75687,26.75687 z m 260.03366,-104.04536 -111.08411,64.13445 c -12.83736,7.41165 -29.13891,3.04366 -36.55056,-9.7937 l -0.17389,-0.30119 c -7.41166,-12.83735 -3.04367,-29.1389 9.79369,-36.55056 l 111.08412,-64.13444 c 12.83736,-7.41165 29.1389,-3.04367 36.55056,9.79369 l 0.17389,0.30119 c 7.41165,12.83736 3.04366,29.13891 -9.7937,36.55056 z m 173.17308,-220.12276 -64.13444,111.08412 c -7.41165,12.83736 -23.7132,17.20535 -36.55056,9.79369 l -0.30119,-0.17389 c -12.83736,-7.41165 -17.20534,-23.7132 -9.79369,-36.55056 l 64.13444,-111.08411 c 7.41165,-12.83736 23.7132,-17.20535 36.55056,-9.7937 l 0.30119,0.1739 c 12.83736,7.41165 17.20534,23.7132 9.79369,36.55055 z m 39.91091,-277.21843 v 128.26889 c 0,14.8233 -11.93356,26.75686 -26.75687,26.75686 h -0.34778 c -14.8233,0 -26.75687,-11.93356 -26.75687,-26.75686 v -128.26889 c 0,-14.82331 11.93357,-26.75687 26.75687,-26.75687 h 0.34778 c 14.82331,0 26.75687,11.93356 26.75687,26.75687 z m -104.04536,-260.03364 64.13445,111.0841 c 7.41165,12.83735 3.04366,29.1389 -9.7937,36.55055 l -0.30119,0.17389 c -12.83735,7.41166 -29.1389,3.04367 -36.55056,-9.79369 l -64.13444,-111.08415 c -7.41165,-12.8373 -3.04367,-29.1389 9.79369,-36.5505 l 0.30119,-0.1739 c 12.83736,-7.4117 29.13891,-3.0437 36.55056,9.7937 z m -220.12276,-173.1731 111.08412,64.1344 c 12.83736,7.4117 17.20535,23.7132 9.79369,36.5506 l -0.17389,0.3012 c -7.41165,12.8373 -23.7132,17.2053 -36.55056,9.7937 l -111.08411,-64.1345 c -12.83736,-7.4116 -17.20535,-23.7132 -9.7937,-36.5505 l 0.1739,-0.3012 c 7.41165,-12.8374 23.7132,-17.2054 36.55055,-9.7937 z" />
    <path
       style="fill:#333333;fill-opacity:1;stroke-width:0.264584"
       id="path17"
       d="m 1211.104,321.53204 -86.9206,-60.21391 -98.8794,37.46693 30.4069,-101.27354 -66.18859,-82.46197 105.71309,-2.37658 57.9726,-88.431232 34.9274,99.804732 102.0176,27.80846 -84.1267,64.0593 z"
       transform="matrix(0.26458366,0,0,0.26458366,41.700323,71.060131)" />
    <path
       style="fill:#333333;fill-opacity:1;stroke-width:0.264584"
       id="path17-0"
       d="m 1211.104,321.53204 -86.9206,-60.21391 -98.8794,37.46693 30.4069,-101.27354 -66.18859,-82.46197 105.71309,-2.37658 57.9726,-88.431232 34.9274,99.804732 102.0176,27.80846 -84.1267,64.0593 z"
       transform="matrix(0.26458366,0,0,0.26458366,-116.87038,300.99674)" />
  </g>
</svg>
