<?xml version="1.0" encoding="UTF-8" standalone="no"?>
<!-- Created with Inkscape (http://www.inkscape.org/) -->

<svg
   width="1123.2657mm"
   height="1887.8446mm"
   viewBox="0 0 1123.2657 1887.8446"
   version="1.1"
   id="svg1"
   sodipodi:docname="experience.svg"
   inkscape:version="1.3.2 (091e20e, 2023-11-25)"
   xmlns:inkscape="http://www.inkscape.org/namespaces/inkscape"
   xmlns:sodipodi="http://sodipodi.sourceforge.net/DTD/sodipodi-0.dtd"
   xmlns="http://www.w3.org/2000/svg"
   xmlns:svg="http://www.w3.org/2000/svg">
  <sodipodi:namedview
     id="namedview1"
     pagecolor="#ffffff"
     bordercolor="#000000"
     borderopacity="0.25"
     inkscape:showpageshadow="2"
     inkscape:pageopacity="0.0"
     inkscape:pagecheckerboard="0"
     inkscape:deskcolor="#d1d1d1"
     inkscape:document-units="mm"
     inkscape:zoom="0.094690415"
     inkscape:cx="2122.7069"
     inkscape:cy="3569.5271"
     inkscape:window-width="1392"
     inkscape:window-height="947"
     inkscape:window-x="28"
     inkscape:window-y="310"
     inkscape:window-maximized="0"
     inkscape:current-layer="layer1" />
  <defs
     id="defs1" />
  <g
     id="layer1"
     transform="translate(-138.36732,-40.679234)">
    <rect
       style="fill:#1a1a1a;stroke-width:0.266969"
       id="rect70-6-1"
       width="1123.2656"
       height="1713.2788"
       x="138.36731"
       y="215.24504"
       ry="0" />
    <rect
       style="fill:#f9f9f9;stroke-width:0.255241"
       id="rect70-6-1-3"
       width="1062.4797"
       height="1655.6556"
       x="168.76013"
       y="244.05669"
       ry="0" />
    <text
       xml:space="preserve"
       style="font-size:0.906783px;font-family:Silom;-inkscape-font-specification:Silom;text-align:center;text-anchor:middle;fill:#f9f9f9;stroke-width:0.0283369"
       x="1015.1381"
       y="399.21649"
       id="text1"
       transform="scale(1.0295065,0.97133919)"><tspan
         id="tspan1"
         x="1015.1381"
         y="399.21649"
         style="stroke-width:0.0283369">er</tspan></text>
    <path
       id="rect131"
       style="fill:#1a1a1a;fill-opacity:1;stroke-width:0.0597394"
       d="m 798.95314,40.720634 c 0.6609,0.93815 1.3485,1.9202 1.8804,2.65464 4.3385,-1.79937 3.7945,-2.93095 -1.8804,-2.65464 z m -101.5487,23.81715 -482.8005,167.248176 c -6.5934,2.28404 -6.2944,3.77987 0.6704,3.35396 l 26.7143,-1.63361 c 6.9648,-0.42591 17.8798,-2.60752 24.4731,-4.89155 L 704.84014,76.754954 c -1.6285,-1.66804 -3.0059,-3.57357 -4.2633,-5.68673 -1.3705,-2.02495 -2.3563,-4.24466 -3.173,-6.5304 z" />
    <path
       id="rect131-1"
       style="fill:#1a1a1a;fill-opacity:1;stroke-width:0.0597394"
       d="m 659.18474,52.781944 c -0.1042,0.24927 -0.1878,0.46302 -0.294,0.72133 0.01,0.12319 0.021,0.24751 0.028,0.37023 0.1545,-0.33911 0.2869,-0.68906 0.4241,-1.03666 z m 0.195,0.0676 c -0.047,0.15229 -0.2652,0.82284 -0.4343,1.37598 0.2208,4.71891 -0.5425,9.10928 -2.8146,12.29159 L 1124.0631,228.61477 c 6.5934,2.28404 17.5085,4.46565 24.4732,4.89155 l 26.7143,1.63363 c 6.9649,0.4259 7.2637,-1.06997 0.6703,-3.354 z m -1.6482,5.19198 c -0.033,0.096 -0.041,0.11163 -0.067,0.18519 0.02,0.014 0.044,0.0227 -0.013,0.36356 -0.043,0.29876 0.1076,-0.74078 0.08,-0.54875 z" />
    <path
       style="fill:#ff0000;fill-opacity:1;stroke-width:0.0953063"
       id="path131"
       d="M 716.61451,72.676247 A 30.05567,22.704071 0 0 1 687.77358,95.361767 30.05567,22.704071 0 0 1 656.60136,74.50998 30.05567,22.704071 0 0 1 682.92255,50.138952 30.05567,22.704071 0 0 1 716.22239,69.020761" />
    <path
       style="fill:#d40000;fill-opacity:1;stroke-width:0.100689"
       id="path132"
       d="M 695.2628,65.279762 A 21.351789,19.13026 0 0 1 674.77397,84.394392 21.351789,19.13026 0 0 1 652.62898,66.824851 21.351789,19.13026 0 0 1 671.32776,46.290026 21.351789,19.13026 0 0 1 694.98423,62.19968" />
    <text
       xml:space="preserve"
       style="font-size:45.6139px;font-family:Silom;-inkscape-font-specification:Silom;text-align:start;text-anchor:start;fill:#333333;stroke-width:0.0760232"
       x="197.12585"
       y="539.82349"
       id="text98"><tspan
         id="tspan98"
         x="197.12585"
         y="539.82349"
         style="stroke-width:0.0760232"> </tspan><tspan
         x="197.12585"
         y="600.81323"
         id="tspan99"
         style="font-style:normal;font-variant:normal;font-weight:bold;font-stretch:normal;font-family:Silom;-inkscape-font-specification:'Silom Bold';stroke-width:0.0760232"><tspan
   style="font-style:normal;font-variant:normal;font-weight:bold;font-stretch:normal;font-size:50.1426px;font-family:Silom;-inkscape-font-specification:'Silom Bold';stroke-width:0.0760232"
   id="tspan107">US Freight Haul LLC - Manager</tspan> </tspan><tspan
         x="197.12585"
         y="659.5191"
         id="tspan102"
         style="stroke-width:0.0760232">- Complience</tspan><tspan
         x="197.12585"
         y="716.5365"
         style="stroke-width:0.0760232"
         id="tspan111">Made sure commercial truck were up to </tspan><tspan
         x="197.12585"
         y="773.55383"
         style="stroke-width:0.0760232"
         id="tspan112">date with all federal and state regulation.</tspan><tspan
         x="197.12585"
         y="830.57123"
         style="stroke-width:0.0760232"
         id="tspan114" /><tspan
         x="197.12585"
         y="887.58862"
         style="stroke-width:0.0760232"
         id="tspan115">- Customer relations  </tspan><tspan
         x="197.12585"
         y="944.60596"
         style="stroke-width:0.0760232"
         id="tspan116">Establishing close relationships with</tspan><tspan
         x="197.12585"
         y="1001.6234"
         style="stroke-width:0.0760232"
         id="tspan117">customers and  </tspan><tspan
         x="197.12585"
         y="1058.6407"
         style="stroke-width:0.0760232"
         id="tspan113" /><tspan
         x="197.12585"
         y="1115.6581"
         style="stroke-width:0.0760232"
         id="tspan109" /><tspan
         x="197.12585"
         y="1172.6755"
         style="stroke-width:0.0760232"
         id="tspan108"> </tspan><tspan
         x="197.12585"
         y="1229.6929"
         id="tspan101"
         style="stroke-width:0.0760232">- Dispatch </tspan><tspan
         x="197.12585"
         y="1286.7102"
         id="tspan103"
         style="stroke-width:0.0760232">- Customer relations  </tspan></text>
    <text
       xml:space="preserve"
       style="font-size:101.661px;font-family:Silom;-inkscape-font-specification:Silom;text-align:start;text-anchor:start;fill:#1a1a1a;stroke-width:0.0953063"
       x="390.74792"
       y="370.28378"
       id="text118"><tspan
         id="tspan118"
         x="390.74792"
         y="370.28378"
         style="stroke-width:0.0953063">Experience </tspan></text>
  </g>
</svg>
