<?xml version="1.0" encoding="UTF-8" standalone="no"?>
<!-- Created with Inkscape (http://www.inkscape.org/) -->

<svg
   width="3000mm"
   height="3000mm"
   viewBox="0 0 3000 3000"
   version="1.1"
   id="svg1"
   inkscape:export-filename="skills.png"
   inkscape:export-xdpi="96"
   inkscape:export-ydpi="96"
   xml:space="preserve"
   sodipodi:docname="skills.svg"
   inkscape:version="1.3.2 (091e20e, 2023-11-25)"
   xmlns:inkscape="http://www.inkscape.org/namespaces/inkscape"
   xmlns:sodipodi="http://sodipodi.sourceforge.net/DTD/sodipodi-0.dtd"
   xmlns="http://www.w3.org/2000/svg"
   xmlns:svg="http://www.w3.org/2000/svg"><sodipodi:namedview
     id="namedview1"
     pagecolor="#ffffff"
     bordercolor="#000000"
     borderopacity="0.25"
     inkscape:showpageshadow="2"
     inkscape:pageopacity="0.0"
     inkscape:pagecheckerboard="0"
     inkscape:deskcolor="#d1d1d1"
     inkscape:document-units="mm"
     inkscape:zoom="0.017463427"
     inkscape:cx="6069.8283"
     inkscape:cy="6384.7722"
     inkscape:window-width="784"
     inkscape:window-height="944"
     inkscape:window-x="119"
     inkscape:window-y="25"
     inkscape:window-maximized="0"
     inkscape:current-layer="layer1" /><defs
     id="defs1" /><g
     inkscape:label="Layer 1"
     inkscape:groupmode="layer"
     id="layer1"><rect
       style="fill:#4d4d4d;stroke-width:0.181522"
       id="rect33-5"
       width="2101.5457"
       height="642.1391"
       x="623.39612"
       y="2024.0574"
       ry="0" /><path
       id="rect33-5-6"
       style="fill:#4d4d4d;stroke-width:0.100449"
       d="M 873.58802 2179.9124 L 873.58802 2376.5459 L 2975.1336 2376.5459 L 2975.1336 2179.9124 L 873.58802 2179.9124 z " /><path
       id="rect33-5-6-7"
       style="fill:#4d4d4d;stroke-width:0.0930965"
       d="M 348.78347,2326.1238 94.848053,2625.3071 287.7244,2789.0126 c 33.69118,-36.4333 77.34791,-55.6671 126.52089,-56.6924 15.88251,0.6132 28.31251,2.3453 40.10621,4.5506 15.44298,-3.3959 31.62922,-5.4666 47.56118,-4.7821 3.36481,-0.2942 6.71926,-0.7034 10.08476,-0.273 6.8712,0.4822 13.75131,0.866 20.63961,0.9831 14.97377,0.043 29.9423,1.3274 44.92568,1.2519 21.62575,0.2029 43.30693,1.0764 64.87,-1.1208 l 6e-5,4e-4 c 16.87153,-1.7193 32.95233,-2.3935 48.24232,-2.1212 46.62408,0.8309 85.86144,10.493 117.7781,26.1546 7.35121,-0.092 14.70222,-0.2533 22.05254,-0.1797 8.61616,0.1724 17.24009,0.1428 25.86207,0.1576 z" /><rect
       style="fill:#b3b3b3;stroke-width:0.08571"
       id="rect92-0"
       width="2494.0449"
       height="348.39581"
       x="94.848053"
       y="2625.3071"
       ry="0" /><rect
       style="fill:#000000;stroke-width:0.0193148"
       id="rect92-0-7"
       width="712.13147"
       height="61.962746"
       x="1646.6608"
       y="-2760.0891"
       ry="0"
       transform="scale(1,-1)" /><rect
       style="fill:#000000;stroke-width:0.00479891"
       id="rect92-0-7-6-6"
       width="71.836044"
       height="37.918983"
       x="623.59729"
       y="-2760.0891"
       ry="0"
       transform="scale(1,-1)" /><rect
       style="fill:#000000;stroke-width:0.00479891"
       id="rect92-0-7-6-6-6"
       width="71.836044"
       height="37.918983"
       x="511.23166"
       y="-2760.0891"
       ry="0"
       transform="scale(1,-1)" /><rect
       style="fill:#4d4d4d;stroke-width:8.2991397;stroke:#333333;stroke-dasharray:none"
       id="rect87"
       width="90.794914"
       height="576.56873"
       x="1452.2659"
       y="-778.06616"
       ry="31.59733"
       transform="matrix(0.89655422,0.44293399,-0.62052069,0.78419007,0,0)" /><rect
       style="fill:#4d4d4d;stroke-width:8.29370875;stroke:#333333;stroke-dasharray:none"
       id="rect87-0"
       width="91.667717"
       height="565.32043"
       x="818.66254"
       y="474.84793"
       ry="30.980906"
       transform="matrix(0.9199525,-0.39202983,0.57053248,0.82127504,0,0)" /><path
       id="rect35"
       style="fill:#666666;stroke-width:0.345646"
       d="m 2975.1336,2179.9124 -386.2405,445.3947 v 348.3956 l 386.2405,-445.3947 z" /><rect
       style="fill:#cccccc;stroke-width:10.699;stroke:#000000;stroke-dasharray:none"
       id="rect34"
       width="1327.5032"
       height="2194.0156"
       x="1533.2087"
       y="428.25668"
       ry="463.31476" /><rect
       style="fill:#f2f2f2;stroke-width:15.111;stroke:#000000;stroke-dasharray:none;stroke-opacity:1"
       id="rect86"
       width="2428.0867"
       height="2194.0154"
       x="127.82738"
       y="428.25668"
       ry="184.32748" /><rect
       style="fill:#1a1a1a;stroke-width:0.178847"
       id="rect86-1"
       width="2171.1995"
       height="1767.2305"
       x="256.27036"
       y="546.00452"
       ry="109.06679" /><path
       style="fill:#800000;stroke-width:0.129512"
       id="path86"
       sodipodi:type="arc"
       sodipodi:cx="2162.8745"
       sodipodi:cy="2475.9592"
       sodipodi:rx="34.075733"
       sodipodi:ry="31.304262"
       sodipodi:start="0"
       sodipodi:end="6.1214757"
       sodipodi:open="true"
       sodipodi:arc-type="arc"
       d="m 2196.9502,2475.9592 a 34.075733,31.304262 0 0 1 -32.6985,31.2787 34.075733,31.304262 0 0 1 -35.3416,-28.7503 34.075733,31.304262 0 0 1 29.8418,-33.6027 34.075733,31.304262 0 0 1 37.7538,26.0342" /><path
       style="fill:#008000;stroke-width:0.129512"
       id="path86-6"
       sodipodi:type="arc"
       sodipodi:cx="2010.1221"
       sodipodi:cy="2475.9592"
       sodipodi:rx="34.075733"
       sodipodi:ry="31.304262"
       sodipodi:start="0"
       sodipodi:end="6.1214757"
       sodipodi:open="true"
       sodipodi:arc-type="arc"
       d="m 2044.1978,2475.9592 a 34.075733,31.304262 0 0 1 -32.6985,31.2787 34.075733,31.304262 0 0 1 -35.3416,-28.7503 34.075733,31.304262 0 0 1 29.8417,-33.6027 34.075733,31.304262 0 0 1 37.7538,26.0342" /><path
       style="fill:#008000;stroke-width:0.129512"
       id="path86-6-6"
       sodipodi:type="arc"
       sodipodi:cx="1829.4639"
       sodipodi:cy="2475.9592"
       sodipodi:rx="34.075733"
       sodipodi:ry="31.304262"
       sodipodi:start="0"
       sodipodi:end="6.1214757"
       sodipodi:open="true"
       sodipodi:arc-type="arc"
       d="m 1863.5396,2475.9592 a 34.075733,31.304262 0 0 1 -32.6985,31.2787 34.075733,31.304262 0 0 1 -35.3416,-28.7503 34.075733,31.304262 0 0 1 29.8417,-33.6027 34.075733,31.304262 0 0 1 37.7538,26.0342" /><rect
       style="fill:#1a1a1a;stroke:#1a1a1a;stroke-width:10.3932;paint-order:stroke fill markers"
       id="rect1"
       width="173.85268"
       height="105.04613"
       x="516.40619"
       y="2415.8723"
       ry="26.709852" /><text
       xml:space="preserve"
       style="font-weight:bold;font-size:79.2393px;line-height:1;font-family:Noteworthy;-inkscape-font-specification:'Noteworthy Bold';fill:#333333;stroke:#ececec;stroke-width:4.86148;paint-order:stroke fill markers"
       x="1256.2589"
       y="2447.7168"
       id="text1"><tspan
         sodipodi:role="line"
         id="tspan1"
         style="font-style:normal;font-variant:normal;font-weight:bold;font-stretch:normal;font-family:Phosphate;-inkscape-font-specification:'Phosphate Bold';stroke:#ececec;stroke-width:4.86148;fill:#333333"
         x="1256.2589"
         y="2447.7168">RY</tspan></text></g></svg>
